<mxfile host="Electron" modified="2024-06-10T11:35:02.952Z" agent="Mozilla/5.0 (Macintosh; Intel Mac OS X 10_15_7) AppleWebKit/537.36 (KHTML, like Gecko) draw.io/24.5.1 Chrome/124.0.6367.207 Electron/30.0.6 Safari/537.36" etag="fo1xyj40CgT1n_DzKb7y" version="24.5.1" type="device">
  <diagram id="R2lEEEUBdFMjLlhIrx00" name="Page-1">
    <mxGraphModel dx="1026" dy="743" grid="1" gridSize="10" guides="1" tooltips="1" connect="1" arrows="1" fold="1" page="1" pageScale="1" pageWidth="1169" pageHeight="827" math="0" shadow="0" extFonts="Permanent Marker^https://fonts.googleapis.com/css?family=Permanent+Marker">
      <root>
        <mxCell id="0" />
        <mxCell id="1" parent="0" />
        <mxCell id="C-vyLk0tnHw3VtMMgP7b-1" value="" style="edgeStyle=entityRelationEdgeStyle;endArrow=ERzeroToMany;startArrow=ERone;endFill=1;startFill=0;" parent="1" source="C-vyLk0tnHw3VtMMgP7b-24" target="C-vyLk0tnHw3VtMMgP7b-6" edge="1">
          <mxGeometry width="100" height="100" relative="1" as="geometry">
            <mxPoint x="340" y="1030" as="sourcePoint" />
            <mxPoint x="440" y="930" as="targetPoint" />
          </mxGeometry>
        </mxCell>
        <mxCell id="C-vyLk0tnHw3VtMMgP7b-2" value="SUB ENTITY" style="shape=table;startSize=30;container=1;collapsible=1;childLayout=tableLayout;fixedRows=1;rowLines=0;fontStyle=1;align=center;resizeLast=1;opacity=50;strokeColor=#CCCCCC;textOpacity=30;" parent="1" vertex="1">
          <mxGeometry x="760" y="350" width="195" height="120" as="geometry" />
        </mxCell>
        <mxCell id="C-vyLk0tnHw3VtMMgP7b-3" value="" style="shape=partialRectangle;collapsible=0;dropTarget=0;pointerEvents=0;fillColor=none;points=[[0,0.5],[1,0.5]];portConstraint=eastwest;top=0;left=0;right=0;bottom=1;" parent="C-vyLk0tnHw3VtMMgP7b-2" vertex="1">
          <mxGeometry y="30" width="195" height="30" as="geometry" />
        </mxCell>
        <mxCell id="C-vyLk0tnHw3VtMMgP7b-4" value="PK" style="shape=partialRectangle;overflow=hidden;connectable=0;fillColor=none;top=0;left=0;bottom=0;right=0;fontStyle=1;textOpacity=30;" parent="C-vyLk0tnHw3VtMMgP7b-3" vertex="1">
          <mxGeometry width="30" height="30" as="geometry">
            <mxRectangle width="30" height="30" as="alternateBounds" />
          </mxGeometry>
        </mxCell>
        <mxCell id="C-vyLk0tnHw3VtMMgP7b-5" value="ID int NOT NULL " style="shape=partialRectangle;overflow=hidden;connectable=0;fillColor=none;top=0;left=0;bottom=0;right=0;align=left;spacingLeft=6;fontStyle=5;textOpacity=30;" parent="C-vyLk0tnHw3VtMMgP7b-3" vertex="1">
          <mxGeometry x="30" width="165" height="30" as="geometry">
            <mxRectangle width="165" height="30" as="alternateBounds" />
          </mxGeometry>
        </mxCell>
        <mxCell id="C-vyLk0tnHw3VtMMgP7b-6" value="" style="shape=partialRectangle;collapsible=0;dropTarget=0;pointerEvents=0;fillColor=none;points=[[0,0.5],[1,0.5]];portConstraint=eastwest;top=0;left=0;right=0;bottom=0;" parent="C-vyLk0tnHw3VtMMgP7b-2" vertex="1">
          <mxGeometry y="60" width="195" height="30" as="geometry" />
        </mxCell>
        <mxCell id="C-vyLk0tnHw3VtMMgP7b-7" value="FK" style="shape=partialRectangle;overflow=hidden;connectable=0;fillColor=none;top=0;left=0;bottom=0;right=0;textOpacity=30;" parent="C-vyLk0tnHw3VtMMgP7b-6" vertex="1">
          <mxGeometry width="30" height="30" as="geometry">
            <mxRectangle width="30" height="30" as="alternateBounds" />
          </mxGeometry>
        </mxCell>
        <mxCell id="C-vyLk0tnHw3VtMMgP7b-8" value="FKID int NOT NULL" style="shape=partialRectangle;overflow=hidden;connectable=0;fillColor=none;top=0;left=0;bottom=0;right=0;align=left;spacingLeft=6;fontStyle=1;textOpacity=30;" parent="C-vyLk0tnHw3VtMMgP7b-6" vertex="1">
          <mxGeometry x="30" width="165" height="30" as="geometry">
            <mxRectangle width="165" height="30" as="alternateBounds" />
          </mxGeometry>
        </mxCell>
        <mxCell id="C-vyLk0tnHw3VtMMgP7b-9" value="" style="shape=partialRectangle;collapsible=0;dropTarget=0;pointerEvents=0;fillColor=none;points=[[0,0.5],[1,0.5]];portConstraint=eastwest;top=0;left=0;right=0;bottom=0;" parent="C-vyLk0tnHw3VtMMgP7b-2" vertex="1">
          <mxGeometry y="90" width="195" height="30" as="geometry" />
        </mxCell>
        <mxCell id="C-vyLk0tnHw3VtMMgP7b-10" value="" style="shape=partialRectangle;overflow=hidden;connectable=0;fillColor=none;top=0;left=0;bottom=0;right=0;textOpacity=30;" parent="C-vyLk0tnHw3VtMMgP7b-9" vertex="1">
          <mxGeometry width="30" height="30" as="geometry">
            <mxRectangle width="30" height="30" as="alternateBounds" />
          </mxGeometry>
        </mxCell>
        <mxCell id="C-vyLk0tnHw3VtMMgP7b-11" value="COLUMNS (Value Types)" style="shape=partialRectangle;overflow=hidden;connectable=0;fillColor=none;top=0;left=0;bottom=0;right=0;align=left;spacingLeft=6;textOpacity=30;" parent="C-vyLk0tnHw3VtMMgP7b-9" vertex="1">
          <mxGeometry x="30" width="165" height="30" as="geometry">
            <mxRectangle width="165" height="30" as="alternateBounds" />
          </mxGeometry>
        </mxCell>
        <mxCell id="C-vyLk0tnHw3VtMMgP7b-23" value="ENTITY (RE)" style="shape=table;startSize=30;container=1;collapsible=1;childLayout=tableLayout;fixedRows=1;rowLines=0;fontStyle=1;align=center;resizeLast=1;fontColor=#000000;" parent="1" vertex="1">
          <mxGeometry x="460" y="430" width="200" height="100" as="geometry" />
        </mxCell>
        <mxCell id="C-vyLk0tnHw3VtMMgP7b-24" value="" style="shape=partialRectangle;collapsible=0;dropTarget=0;pointerEvents=0;fillColor=none;points=[[0,0.5],[1,0.5]];portConstraint=eastwest;top=0;left=0;right=0;bottom=1;" parent="C-vyLk0tnHw3VtMMgP7b-23" vertex="1">
          <mxGeometry y="30" width="200" height="30" as="geometry" />
        </mxCell>
        <mxCell id="C-vyLk0tnHw3VtMMgP7b-25" value="PK" style="shape=partialRectangle;overflow=hidden;connectable=0;fillColor=none;top=0;left=0;bottom=0;right=0;fontStyle=1;" parent="C-vyLk0tnHw3VtMMgP7b-24" vertex="1">
          <mxGeometry width="30" height="30" as="geometry">
            <mxRectangle width="30" height="30" as="alternateBounds" />
          </mxGeometry>
        </mxCell>
        <mxCell id="C-vyLk0tnHw3VtMMgP7b-26" value="ID int NOT NULL " style="shape=partialRectangle;overflow=hidden;connectable=0;fillColor=none;top=0;left=0;bottom=0;right=0;align=left;spacingLeft=6;fontStyle=5;" parent="C-vyLk0tnHw3VtMMgP7b-24" vertex="1">
          <mxGeometry x="30" width="170" height="30" as="geometry">
            <mxRectangle width="170" height="30" as="alternateBounds" />
          </mxGeometry>
        </mxCell>
        <mxCell id="C-vyLk0tnHw3VtMMgP7b-27" value="" style="shape=partialRectangle;collapsible=0;dropTarget=0;pointerEvents=0;fillColor=none;points=[[0,0.5],[1,0.5]];portConstraint=eastwest;top=0;left=0;right=0;bottom=0;" parent="C-vyLk0tnHw3VtMMgP7b-23" vertex="1">
          <mxGeometry y="60" width="200" height="30" as="geometry" />
        </mxCell>
        <mxCell id="C-vyLk0tnHw3VtMMgP7b-28" value="" style="shape=partialRectangle;overflow=hidden;connectable=0;fillColor=none;top=0;left=0;bottom=0;right=0;" parent="C-vyLk0tnHw3VtMMgP7b-27" vertex="1">
          <mxGeometry width="30" height="30" as="geometry">
            <mxRectangle width="30" height="30" as="alternateBounds" />
          </mxGeometry>
        </mxCell>
        <mxCell id="C-vyLk0tnHw3VtMMgP7b-29" value="COLUMNS" style="shape=partialRectangle;overflow=hidden;connectable=0;fillColor=none;top=0;left=0;bottom=0;right=0;align=left;spacingLeft=6;fontColor=#FF0000;fontStyle=1" parent="C-vyLk0tnHw3VtMMgP7b-27" vertex="1">
          <mxGeometry x="30" width="170" height="30" as="geometry">
            <mxRectangle width="170" height="30" as="alternateBounds" />
          </mxGeometry>
        </mxCell>
        <mxCell id="YahrEmIbVGKIaJTnLxun-7" value="Assets" style="childLayout=tableLayout;recursiveResize=0;strokeColor=#98bf21;fillColor=#A7C942;shadow=1;" parent="1" vertex="1">
          <mxGeometry x="90" y="130" width="520" height="210" as="geometry" />
        </mxCell>
        <mxCell id="YahrEmIbVGKIaJTnLxun-8" style="shape=tableRow;horizontal=0;startSize=0;swimlaneHead=0;swimlaneBody=0;top=0;left=0;bottom=0;right=0;dropTarget=0;collapsible=0;recursiveResize=0;expand=0;fontStyle=0;strokeColor=inherit;fillColor=#ffffff;" parent="YahrEmIbVGKIaJTnLxun-7" vertex="1">
          <mxGeometry width="520" height="50" as="geometry" />
        </mxCell>
        <mxCell id="YahrEmIbVGKIaJTnLxun-68" value="Method" style="connectable=0;recursiveResize=0;strokeColor=inherit;fillColor=#A7C942;align=center;fontStyle=1;fontColor=#FFFFFF;html=1;" parent="YahrEmIbVGKIaJTnLxun-8" vertex="1">
          <mxGeometry width="74" height="50" as="geometry">
            <mxRectangle width="74" height="50" as="alternateBounds" />
          </mxGeometry>
        </mxCell>
        <mxCell id="YahrEmIbVGKIaJTnLxun-57" value="Name" style="connectable=0;recursiveResize=0;strokeColor=inherit;fillColor=#A7C942;align=center;fontStyle=1;fontColor=#FFFFFF;html=1;" parent="YahrEmIbVGKIaJTnLxun-8" vertex="1">
          <mxGeometry x="74" width="49" height="50" as="geometry">
            <mxRectangle width="49" height="50" as="alternateBounds" />
          </mxGeometry>
        </mxCell>
        <mxCell id="YahrEmIbVGKIaJTnLxun-9" value="Param&lt;div&gt;(Query / Route)&lt;/div&gt;" style="connectable=0;recursiveResize=0;strokeColor=inherit;fillColor=#A7C942;align=center;fontStyle=1;fontColor=#FFFFFF;html=1;" parent="YahrEmIbVGKIaJTnLxun-8" vertex="1">
          <mxGeometry x="123" width="138" height="50" as="geometry">
            <mxRectangle width="138" height="50" as="alternateBounds" />
          </mxGeometry>
        </mxCell>
        <mxCell id="YahrEmIbVGKIaJTnLxun-10" value="Payload&lt;div&gt;entity (PE)&lt;/div&gt;" style="connectable=0;recursiveResize=0;strokeColor=#b85450;fillColor=#f8cecc;align=center;fontStyle=1;html=1;" parent="YahrEmIbVGKIaJTnLxun-8" vertex="1">
          <mxGeometry x="261" width="129" height="50" as="geometry">
            <mxRectangle width="129" height="50" as="alternateBounds" />
          </mxGeometry>
        </mxCell>
        <mxCell id="YahrEmIbVGKIaJTnLxun-11" value="Response&lt;div&gt;entity (RE)&lt;/div&gt;" style="connectable=0;recursiveResize=0;strokeColor=#b85450;fillColor=#f8cecc;align=center;fontStyle=1;html=1;" parent="YahrEmIbVGKIaJTnLxun-8" vertex="1">
          <mxGeometry x="390" width="130" height="50" as="geometry">
            <mxRectangle width="130" height="50" as="alternateBounds" />
          </mxGeometry>
        </mxCell>
        <mxCell id="YahrEmIbVGKIaJTnLxun-12" value="" style="shape=tableRow;horizontal=0;startSize=0;swimlaneHead=0;swimlaneBody=0;top=0;left=0;bottom=0;right=0;dropTarget=0;collapsible=0;recursiveResize=0;expand=0;fontStyle=0;strokeColor=inherit;fillColor=#ffffff;" parent="YahrEmIbVGKIaJTnLxun-7" vertex="1">
          <mxGeometry y="50" width="520" height="33" as="geometry" />
        </mxCell>
        <mxCell id="YahrEmIbVGKIaJTnLxun-69" value="GET" style="connectable=0;recursiveResize=0;strokeColor=#82b366;fillColor=#d5e8d4;align=left;whiteSpace=wrap;html=1;spacingLeft=7;" parent="YahrEmIbVGKIaJTnLxun-12" vertex="1">
          <mxGeometry width="74" height="33" as="geometry">
            <mxRectangle width="74" height="33" as="alternateBounds" />
          </mxGeometry>
        </mxCell>
        <mxCell id="YahrEmIbVGKIaJTnLxun-58" value="" style="connectable=0;recursiveResize=0;strokeColor=#82b366;fillColor=#d5e8d4;align=center;whiteSpace=wrap;html=1;" parent="YahrEmIbVGKIaJTnLxun-12" vertex="1">
          <mxGeometry x="74" width="49" height="33" as="geometry">
            <mxRectangle width="49" height="33" as="alternateBounds" />
          </mxGeometry>
        </mxCell>
        <mxCell id="YahrEmIbVGKIaJTnLxun-13" value="[ PAGE PROPS ]" style="connectable=0;recursiveResize=0;strokeColor=#82b366;fillColor=#d5e8d4;align=center;whiteSpace=wrap;html=1;" parent="YahrEmIbVGKIaJTnLxun-12" vertex="1">
          <mxGeometry x="123" width="138" height="33" as="geometry">
            <mxRectangle width="138" height="33" as="alternateBounds" />
          </mxGeometry>
        </mxCell>
        <mxCell id="YahrEmIbVGKIaJTnLxun-14" value="" style="connectable=0;recursiveResize=0;strokeColor=#82b366;fillColor=#d5e8d4;align=center;whiteSpace=wrap;html=1;" parent="YahrEmIbVGKIaJTnLxun-12" vertex="1">
          <mxGeometry x="261" width="129" height="33" as="geometry">
            <mxRectangle width="129" height="33" as="alternateBounds" />
          </mxGeometry>
        </mxCell>
        <mxCell id="YahrEmIbVGKIaJTnLxun-15" value="RE [ ]" style="connectable=0;recursiveResize=0;strokeColor=#82b366;fillColor=#d5e8d4;align=center;whiteSpace=wrap;html=1;" parent="YahrEmIbVGKIaJTnLxun-12" vertex="1">
          <mxGeometry x="390" width="130" height="33" as="geometry">
            <mxRectangle width="130" height="33" as="alternateBounds" />
          </mxGeometry>
        </mxCell>
        <mxCell id="YahrEmIbVGKIaJTnLxun-16" value="" style="shape=tableRow;horizontal=0;startSize=0;swimlaneHead=0;swimlaneBody=0;top=0;left=0;bottom=0;right=0;dropTarget=0;collapsible=0;recursiveResize=0;expand=0;fontStyle=1;strokeColor=inherit;fillColor=#EAF2D3;" parent="YahrEmIbVGKIaJTnLxun-7" vertex="1">
          <mxGeometry y="83" width="520" height="31" as="geometry" />
        </mxCell>
        <mxCell id="YahrEmIbVGKIaJTnLxun-70" value="GET" style="connectable=0;recursiveResize=0;strokeColor=#82b366;fillColor=#d5e8d4;whiteSpace=wrap;html=1;align=left;spacingLeft=7;" parent="YahrEmIbVGKIaJTnLxun-16" vertex="1">
          <mxGeometry width="74" height="31" as="geometry">
            <mxRectangle width="74" height="31" as="alternateBounds" />
          </mxGeometry>
        </mxCell>
        <mxCell id="YahrEmIbVGKIaJTnLxun-59" value="" style="connectable=0;recursiveResize=0;strokeColor=#82b366;fillColor=#d5e8d4;whiteSpace=wrap;html=1;" parent="YahrEmIbVGKIaJTnLxun-16" vertex="1">
          <mxGeometry x="74" width="49" height="31" as="geometry">
            <mxRectangle width="49" height="31" as="alternateBounds" />
          </mxGeometry>
        </mxCell>
        <mxCell id="YahrEmIbVGKIaJTnLxun-17" value="ID" style="connectable=0;recursiveResize=0;strokeColor=#82b366;fillColor=#d5e8d4;whiteSpace=wrap;html=1;" parent="YahrEmIbVGKIaJTnLxun-16" vertex="1">
          <mxGeometry x="123" width="138" height="31" as="geometry">
            <mxRectangle width="138" height="31" as="alternateBounds" />
          </mxGeometry>
        </mxCell>
        <mxCell id="YahrEmIbVGKIaJTnLxun-18" value="" style="connectable=0;recursiveResize=0;strokeColor=#82b366;fillColor=#d5e8d4;whiteSpace=wrap;html=1;" parent="YahrEmIbVGKIaJTnLxun-16" vertex="1">
          <mxGeometry x="261" width="129" height="31" as="geometry">
            <mxRectangle width="129" height="31" as="alternateBounds" />
          </mxGeometry>
        </mxCell>
        <mxCell id="YahrEmIbVGKIaJTnLxun-19" value="RE" style="connectable=0;recursiveResize=0;strokeColor=#82b366;fillColor=#d5e8d4;whiteSpace=wrap;html=1;" parent="YahrEmIbVGKIaJTnLxun-16" vertex="1">
          <mxGeometry x="390" width="130" height="31" as="geometry">
            <mxRectangle width="130" height="31" as="alternateBounds" />
          </mxGeometry>
        </mxCell>
        <mxCell id="YahrEmIbVGKIaJTnLxun-20" value="" style="shape=tableRow;horizontal=0;startSize=0;swimlaneHead=0;swimlaneBody=0;top=0;left=0;bottom=0;right=0;dropTarget=0;collapsible=0;recursiveResize=0;expand=0;fontStyle=0;strokeColor=inherit;fillColor=#ffffff;" parent="YahrEmIbVGKIaJTnLxun-7" vertex="1">
          <mxGeometry y="114" width="520" height="33" as="geometry" />
        </mxCell>
        <mxCell id="YahrEmIbVGKIaJTnLxun-71" value="POST" style="connectable=0;recursiveResize=0;strokeColor=#d6b656;fillColor=#fff2cc;fontStyle=0;align=left;whiteSpace=wrap;html=1;spacingLeft=7;" parent="YahrEmIbVGKIaJTnLxun-20" vertex="1">
          <mxGeometry width="74" height="33" as="geometry">
            <mxRectangle width="74" height="33" as="alternateBounds" />
          </mxGeometry>
        </mxCell>
        <mxCell id="YahrEmIbVGKIaJTnLxun-60" style="connectable=0;recursiveResize=0;strokeColor=#d6b656;fillColor=#fff2cc;fontStyle=0;align=center;whiteSpace=wrap;html=1;" parent="YahrEmIbVGKIaJTnLxun-20" vertex="1">
          <mxGeometry x="74" width="49" height="33" as="geometry">
            <mxRectangle width="49" height="33" as="alternateBounds" />
          </mxGeometry>
        </mxCell>
        <mxCell id="YahrEmIbVGKIaJTnLxun-21" value="ID" style="connectable=0;recursiveResize=0;strokeColor=#d6b656;fillColor=#fff2cc;fontStyle=0;align=center;whiteSpace=wrap;html=1;" parent="YahrEmIbVGKIaJTnLxun-20" vertex="1">
          <mxGeometry x="123" width="138" height="33" as="geometry">
            <mxRectangle width="138" height="33" as="alternateBounds" />
          </mxGeometry>
        </mxCell>
        <mxCell id="YahrEmIbVGKIaJTnLxun-22" value="PE" style="connectable=0;recursiveResize=0;strokeColor=#d6b656;fillColor=#fff2cc;fontStyle=0;align=center;whiteSpace=wrap;html=1;" parent="YahrEmIbVGKIaJTnLxun-20" vertex="1">
          <mxGeometry x="261" width="129" height="33" as="geometry">
            <mxRectangle width="129" height="33" as="alternateBounds" />
          </mxGeometry>
        </mxCell>
        <mxCell id="YahrEmIbVGKIaJTnLxun-23" value="RE" style="connectable=0;recursiveResize=0;strokeColor=#d6b656;fillColor=#fff2cc;fontStyle=0;align=center;whiteSpace=wrap;html=1;" parent="YahrEmIbVGKIaJTnLxun-20" vertex="1">
          <mxGeometry x="390" width="130" height="33" as="geometry">
            <mxRectangle width="130" height="33" as="alternateBounds" />
          </mxGeometry>
        </mxCell>
        <mxCell id="YahrEmIbVGKIaJTnLxun-24" value="" style="shape=tableRow;horizontal=0;startSize=0;swimlaneHead=0;swimlaneBody=0;top=0;left=0;bottom=0;right=0;dropTarget=0;collapsible=0;recursiveResize=0;expand=0;fontStyle=1;strokeColor=inherit;fillColor=#EAF2D3;" parent="YahrEmIbVGKIaJTnLxun-7" vertex="1">
          <mxGeometry y="147" width="520" height="32" as="geometry" />
        </mxCell>
        <mxCell id="YahrEmIbVGKIaJTnLxun-72" value="PUT" style="connectable=0;recursiveResize=0;strokeColor=#d6b656;fillColor=#fff2cc;whiteSpace=wrap;html=1;align=left;spacingLeft=7;" parent="YahrEmIbVGKIaJTnLxun-24" vertex="1">
          <mxGeometry width="74" height="32" as="geometry">
            <mxRectangle width="74" height="32" as="alternateBounds" />
          </mxGeometry>
        </mxCell>
        <mxCell id="YahrEmIbVGKIaJTnLxun-61" style="connectable=0;recursiveResize=0;strokeColor=#d6b656;fillColor=#fff2cc;whiteSpace=wrap;html=1;" parent="YahrEmIbVGKIaJTnLxun-24" vertex="1">
          <mxGeometry x="74" width="49" height="32" as="geometry">
            <mxRectangle width="49" height="32" as="alternateBounds" />
          </mxGeometry>
        </mxCell>
        <mxCell id="YahrEmIbVGKIaJTnLxun-25" value="ID" style="connectable=0;recursiveResize=0;strokeColor=#d6b656;fillColor=#fff2cc;whiteSpace=wrap;html=1;" parent="YahrEmIbVGKIaJTnLxun-24" vertex="1">
          <mxGeometry x="123" width="138" height="32" as="geometry">
            <mxRectangle width="138" height="32" as="alternateBounds" />
          </mxGeometry>
        </mxCell>
        <mxCell id="YahrEmIbVGKIaJTnLxun-26" value="PE" style="connectable=0;recursiveResize=0;strokeColor=#d6b656;fillColor=#fff2cc;whiteSpace=wrap;html=1;" parent="YahrEmIbVGKIaJTnLxun-24" vertex="1">
          <mxGeometry x="261" width="129" height="32" as="geometry">
            <mxRectangle width="129" height="32" as="alternateBounds" />
          </mxGeometry>
        </mxCell>
        <mxCell id="YahrEmIbVGKIaJTnLxun-27" value="RE" style="connectable=0;recursiveResize=0;strokeColor=#d6b656;fillColor=#fff2cc;whiteSpace=wrap;html=1;" parent="YahrEmIbVGKIaJTnLxun-24" vertex="1">
          <mxGeometry x="390" width="130" height="32" as="geometry">
            <mxRectangle width="130" height="32" as="alternateBounds" />
          </mxGeometry>
        </mxCell>
        <mxCell id="YahrEmIbVGKIaJTnLxun-62" style="shape=tableRow;horizontal=0;startSize=0;swimlaneHead=0;swimlaneBody=0;top=0;left=0;bottom=0;right=0;dropTarget=0;collapsible=0;recursiveResize=0;expand=0;fontStyle=1;strokeColor=inherit;fillColor=#EAF2D3;" parent="YahrEmIbVGKIaJTnLxun-7" vertex="1">
          <mxGeometry y="179" width="520" height="31" as="geometry" />
        </mxCell>
        <mxCell id="YahrEmIbVGKIaJTnLxun-73" value="DELETE" style="connectable=0;recursiveResize=0;whiteSpace=wrap;html=1;align=left;spacingLeft=7;fillColor=#fff2cc;strokeColor=#d6b656;" parent="YahrEmIbVGKIaJTnLxun-62" vertex="1">
          <mxGeometry width="74" height="31" as="geometry">
            <mxRectangle width="74" height="31" as="alternateBounds" />
          </mxGeometry>
        </mxCell>
        <mxCell id="YahrEmIbVGKIaJTnLxun-63" style="connectable=0;recursiveResize=0;whiteSpace=wrap;html=1;fillColor=#fff2cc;strokeColor=#d6b656;" parent="YahrEmIbVGKIaJTnLxun-62" vertex="1">
          <mxGeometry x="74" width="49" height="31" as="geometry">
            <mxRectangle width="49" height="31" as="alternateBounds" />
          </mxGeometry>
        </mxCell>
        <mxCell id="YahrEmIbVGKIaJTnLxun-64" value="ID" style="connectable=0;recursiveResize=0;whiteSpace=wrap;html=1;fillColor=#fff2cc;strokeColor=#d6b656;" parent="YahrEmIbVGKIaJTnLxun-62" vertex="1">
          <mxGeometry x="123" width="138" height="31" as="geometry">
            <mxRectangle width="138" height="31" as="alternateBounds" />
          </mxGeometry>
        </mxCell>
        <mxCell id="YahrEmIbVGKIaJTnLxun-65" style="connectable=0;recursiveResize=0;whiteSpace=wrap;html=1;fillColor=#fff2cc;strokeColor=#d6b656;" parent="YahrEmIbVGKIaJTnLxun-62" vertex="1">
          <mxGeometry x="261" width="129" height="31" as="geometry">
            <mxRectangle width="129" height="31" as="alternateBounds" />
          </mxGeometry>
        </mxCell>
        <mxCell id="YahrEmIbVGKIaJTnLxun-66" style="connectable=0;recursiveResize=0;whiteSpace=wrap;html=1;fillColor=#fff2cc;strokeColor=#d6b656;" parent="YahrEmIbVGKIaJTnLxun-62" vertex="1">
          <mxGeometry x="390" width="130" height="31" as="geometry">
            <mxRectangle width="130" height="31" as="alternateBounds" />
          </mxGeometry>
        </mxCell>
        <mxCell id="YahrEmIbVGKIaJTnLxun-81" value="API /&amp;nbsp;&lt;font color=&quot;#ff0000&quot;&gt;entity&lt;/font&gt;" style="text;strokeColor=none;fillColor=none;html=1;fontSize=24;fontStyle=1;verticalAlign=middle;align=center;" parent="1" vertex="1">
          <mxGeometry x="100" y="80" width="100" height="40" as="geometry" />
        </mxCell>
        <mxCell id="YahrEmIbVGKIaJTnLxun-82" value="ORM /&amp;nbsp;&lt;font color=&quot;#ff0000&quot;&gt;entity&lt;/font&gt;" style="text;strokeColor=none;fillColor=none;html=1;fontSize=24;fontStyle=1;verticalAlign=middle;align=center;" parent="1" vertex="1">
          <mxGeometry x="110" y="380" width="100" height="40" as="geometry" />
        </mxCell>
        <UserObject label="&lt;b&gt;Value Types&lt;/b&gt;" placeholders="1" name="Variable" id="YahrEmIbVGKIaJTnLxun-83">
          <mxCell style="text;html=1;strokeColor=none;fillColor=none;align=center;verticalAlign=middle;whiteSpace=wrap;overflow=hidden;fontColor=#CCCCCC;" parent="1" vertex="1">
            <mxGeometry x="560" y="496" width="80" height="20" as="geometry" />
          </mxCell>
        </UserObject>
        <mxCell id="YahrEmIbVGKIaJTnLxun-85" value="VIEW /&amp;nbsp;&lt;font color=&quot;#ff0000&quot;&gt;entity&lt;/font&gt;" style="text;strokeColor=none;fillColor=none;html=1;fontSize=24;fontStyle=1;verticalAlign=middle;align=center;" parent="1" vertex="1">
          <mxGeometry x="122" y="587" width="100" height="40" as="geometry" />
        </mxCell>
        <mxCell id="YahrEmIbVGKIaJTnLxun-86" value="&lt;div style=&quot;font-size: 13px;&quot;&gt;&lt;div style=&quot;font-size: 13px;&quot;&gt;&lt;font style=&quot;font-size: 13px;&quot;&gt;&lt;b style=&quot;font-size: 13px;&quot;&gt;api&lt;/b&gt; : API/entity&lt;/font&gt;&lt;/div&gt;&lt;div style=&quot;font-size: 13px;&quot;&gt;&lt;font style=&quot;font-size: 13px;&quot;&gt;&lt;b style=&quot;font-size: 13px;&quot;&gt;home&lt;/b&gt; : PAGES/entity&lt;/font&gt;&lt;/div&gt;&lt;div style=&quot;font-size: 13px;&quot;&gt;&lt;span style=&quot;background-color: initial; font-size: 13px;&quot;&gt;&lt;font style=&quot;font-size: 13px;&quot;&gt;&lt;b style=&quot;font-size: 13px;&quot;&gt;resources&lt;/b&gt;: RES.entity&lt;/font&gt;&lt;/span&gt;&lt;/div&gt;&lt;div style=&quot;font-size: 13px;&quot;&gt;&lt;span style=&quot;background-color: initial; font-size: 13px;&quot;&gt;&lt;font style=&quot;font-size: 13px;&quot;&gt;&lt;br style=&quot;font-size: 13px;&quot;&gt;&lt;/font&gt;&lt;/span&gt;&lt;/div&gt;&lt;div style=&quot;font-size: 13px;&quot;&gt;&lt;div style=&quot;font-size: 13px;&quot;&gt;&lt;font style=&quot;font-size: 13px;&quot;&gt;&lt;b style=&quot;font-size: 13px;&quot;&gt;&lt;font color=&quot;#ff0000&quot; style=&quot;font-size: 13px;&quot;&gt;PE :&lt;/font&gt;&lt;/b&gt;&amp;nbsp;{ payload entity }&lt;/font&gt;&lt;/div&gt;&lt;div style=&quot;font-size: 13px;&quot;&gt;&lt;font style=&quot;font-size: 13px;&quot;&gt;&lt;font color=&quot;#ff0000&quot; style=&quot;background-color: initial; font-size: 13px;&quot;&gt;&lt;b style=&quot;font-size: 13px;&quot;&gt;RE&lt;/b&gt;&lt;/font&gt;&lt;span style=&quot;background-color: initial; font-size: 13px;&quot;&gt;&amp;nbsp;:&lt;/span&gt;&lt;span style=&quot;background-color: initial; font-size: 13px;&quot;&gt;&amp;nbsp;{ response entity }&lt;/span&gt;&lt;/font&gt;&lt;/div&gt;&lt;/div&gt;&lt;div style=&quot;font-size: 13px;&quot;&gt;&lt;span style=&quot;background-color: initial; font-size: 13px;&quot;&gt;&lt;font style=&quot;font-size: 13px;&quot;&gt;&lt;br style=&quot;font-size: 13px;&quot;&gt;&lt;/font&gt;&lt;/span&gt;&lt;/div&gt;&lt;div style=&quot;font-size: 13px;&quot;&gt;&lt;span style=&quot;background-color: initial; font-size: 13px;&quot;&gt;&lt;b style=&quot;font-size: 13px;&quot;&gt;&lt;font style=&quot;font-size: 13px;&quot;&gt;COLUMNS&amp;lt;&lt;font color=&quot;#ff0000&quot; style=&quot;font-size: 13px;&quot;&gt;RE&lt;/font&gt;&amp;gt;&lt;/font&gt;&lt;/b&gt;&lt;/span&gt;&lt;/div&gt;&lt;div style=&quot;font-size: 13px;&quot;&gt;&lt;span style=&quot;background-color: initial; font-size: 13px;&quot;&gt;&lt;b style=&quot;font-size: 13px;&quot;&gt;&lt;font style=&quot;font-size: 13px;&quot;&gt;&lt;br style=&quot;font-size: 13px;&quot;&gt;&lt;/font&gt;&lt;/b&gt;&lt;/span&gt;&lt;/div&gt;&lt;div style=&quot;font-size: 13px;&quot;&gt;&lt;div style=&quot;font-size: 13px;&quot;&gt;&lt;b style=&quot;font-size: 13px;&quot;&gt;&lt;font style=&quot;font-size: 13px;&quot;&gt;&lt;span style=&quot;background-color: initial; font-size: 13px;&quot;&gt;FORM&amp;lt;&lt;font color=&quot;#ff0000&quot; style=&quot;font-size: 13px;&quot;&gt;PE,&lt;/font&gt; &lt;font color=&quot;#ff0000&quot; style=&quot;font-size: 13px;&quot;&gt;RE&lt;/font&gt;&amp;gt;&lt;/span&gt;&lt;br style=&quot;font-size: 13px;&quot;&gt;&lt;/font&gt;&lt;/b&gt;&lt;/div&gt;&lt;/div&gt;&lt;/div&gt;&lt;div style=&quot;font-size: 13px;&quot;&gt;&lt;span style=&quot;background-color: initial; font-size: 13px;&quot;&gt;&lt;font color=&quot;#cccccc&quot; style=&quot;font-size: 13px;&quot;&gt;{&lt;/font&gt;&lt;/span&gt;&lt;/div&gt;&lt;div style=&quot;font-size: 13px;&quot;&gt;&lt;span style=&quot;background-color: initial; font-size: 13px;&quot;&gt;&lt;font color=&quot;#cccccc&quot; style=&quot;font-size: 13px;&quot;&gt;&lt;span style=&quot;white-space: pre; font-size: 13px;&quot;&gt;&#x9;&lt;/span&gt;defaults : (RE) =&amp;gt; PE&lt;br style=&quot;font-size: 13px;&quot;&gt;&lt;/font&gt;&lt;/span&gt;&lt;/div&gt;&lt;div style=&quot;font-size: 13px;&quot;&gt;&lt;span style=&quot;background-color: initial; font-size: 13px;&quot;&gt;&lt;font color=&quot;#cccccc&quot; style=&quot;font-size: 13px;&quot;&gt;&lt;span style=&quot;white-space: pre; font-size: 13px;&quot;&gt;&#x9;&lt;/span&gt;schema : schema&amp;lt;PE&amp;gt;&lt;/font&gt;&lt;/span&gt;&lt;/div&gt;&lt;div style=&quot;font-size: 13px;&quot;&gt;&lt;span style=&quot;background-color: initial; font-size: 13px;&quot;&gt;&lt;font color=&quot;#cccccc&quot; style=&quot;font-size: 13px;&quot;&gt;&lt;span style=&quot;white-space: pre; font-size: 13px;&quot;&gt;&#x9;&lt;/span&gt;transform : PE =&amp;gt; PE&amp;nbsp;&lt;br style=&quot;font-size: 13px;&quot;&gt;&lt;/font&gt;&lt;/span&gt;&lt;/div&gt;&lt;div style=&quot;font-size: 13px;&quot;&gt;&lt;span style=&quot;background-color: initial; font-size: 13px;&quot;&gt;&lt;font color=&quot;#cccccc&quot; style=&quot;font-size: 13px;&quot;&gt;}&lt;/font&gt;&lt;/span&gt;&lt;/div&gt;" style="shape=note;whiteSpace=wrap;html=1;backgroundOutline=1;darkOpacity=0.05;align=left;spacingLeft=10;verticalAlign=top;fontSize=13;" parent="1" vertex="1">
          <mxGeometry x="100" y="710" width="208" height="250" as="geometry" />
        </mxCell>
        <mxCell id="K0PCjT4belstwywt3aMA-4" value="&lt;font color=&quot;#b3b3b3&quot;&gt;FETCH&amp;lt;&amp;nbsp;&lt;/font&gt;&lt;font style=&quot;font-size: 18px;&quot;&gt;&lt;font color=&quot;#ea6b66&quot;&gt;PE&lt;/font&gt;&lt;font color=&quot;#b3b3b3&quot;&gt;, &lt;/font&gt;&lt;font color=&quot;#ea6b66&quot;&gt;RE&lt;/font&gt;&lt;font color=&quot;#b3b3b3&quot;&gt;&amp;nbsp;&lt;/font&gt;&lt;/font&gt;&lt;font style=&quot;color: rgb(179, 179, 179); font-size: 18px;&quot;&gt;&amp;gt;&lt;/font&gt;" style="text;strokeColor=none;fillColor=none;html=1;fontSize=18;fontStyle=1;verticalAlign=middle;align=center;" parent="1" vertex="1">
          <mxGeometry x="370" y="660" width="180" height="40" as="geometry" />
        </mxCell>
        <mxCell id="K0PCjT4belstwywt3aMA-7" value="&lt;font style=&quot;font-size: 16px;&quot;&gt;EntityView : /home&lt;/font&gt;" style="swimlane;whiteSpace=wrap;html=1;startSize=30;fillColor=#d5e8d4;strokeColor=#82b366;" parent="1" vertex="1">
          <mxGeometry x="92" y="1050" width="348" height="110" as="geometry" />
        </mxCell>
        <mxCell id="K0PCjT4belstwywt3aMA-88" style="edgeStyle=orthogonalEdgeStyle;rounded=0;orthogonalLoop=1;jettySize=auto;html=1;exitX=1;exitY=0.5;exitDx=0;exitDy=0;" parent="K0PCjT4belstwywt3aMA-7" source="K0PCjT4belstwywt3aMA-23" edge="1">
          <mxGeometry relative="1" as="geometry">
            <mxPoint x="498" y="65" as="targetPoint" />
          </mxGeometry>
        </mxCell>
        <mxCell id="K0PCjT4belstwywt3aMA-120" value="&lt;span style=&quot;font-weight: 700; text-align: right;&quot;&gt;&amp;nbsp;/home/new&amp;nbsp;&lt;/span&gt;" style="edgeLabel;html=1;align=left;verticalAlign=bottom;resizable=0;points=[];labelPosition=right;verticalLabelPosition=top;" parent="K0PCjT4belstwywt3aMA-88" vertex="1" connectable="0">
          <mxGeometry x="0.0279" y="1" relative="1" as="geometry">
            <mxPoint x="-1" y="-2" as="offset" />
          </mxGeometry>
        </mxCell>
        <mxCell id="K0PCjT4belstwywt3aMA-23" value="&lt;b&gt;&lt;font style=&quot;font-size: 15px;&quot;&gt;ADD&lt;/font&gt;&lt;/b&gt;" style="shape=ext;double=1;rounded=1;whiteSpace=wrap;html=1;" parent="K0PCjT4belstwywt3aMA-7" vertex="1">
          <mxGeometry x="268" y="50" width="66.5" height="30" as="geometry" />
        </mxCell>
        <UserObject label="&lt;b style=&quot;font-size: 14px;&quot;&gt;breadcrumbs.&lt;/b&gt;home" placeholders="1" name="Variable" id="K0PCjT4belstwywt3aMA-26">
          <mxCell style="text;html=1;strokeColor=none;fillColor=none;align=left;verticalAlign=middle;whiteSpace=wrap;overflow=hidden;fontSize=14;" parent="K0PCjT4belstwywt3aMA-7" vertex="1">
            <mxGeometry x="26" y="70" width="167.5" height="20" as="geometry" />
          </mxCell>
        </UserObject>
        <UserObject label="&lt;b style=&quot;font-size: 14px;&quot;&gt;title.&lt;/b&gt;home" placeholders="1" name="Variable" id="K0PCjT4belstwywt3aMA-29">
          <mxCell style="text;html=1;strokeColor=none;fillColor=none;align=left;verticalAlign=middle;whiteSpace=wrap;overflow=hidden;fontSize=14;" parent="K0PCjT4belstwywt3aMA-7" vertex="1">
            <mxGeometry x="26" y="50" width="167.5" height="20" as="geometry" />
          </mxCell>
        </UserObject>
        <mxCell id="K0PCjT4belstwywt3aMA-46" value="&lt;font style=&quot;font-size: 16px;&quot;&gt;EntityDetail : /home/&lt;font style=&quot;font-size: 16px;&quot; color=&quot;#ff0000&quot;&gt;:id&lt;/font&gt;&lt;/font&gt;" style="swimlane;whiteSpace=wrap;html=1;startSize=30;fillColor=#d5e8d4;strokeColor=#82b366;" parent="1" vertex="1">
          <mxGeometry x="589" y="1050" width="380" height="110" as="geometry" />
        </mxCell>
        <UserObject label="&lt;b style=&quot;font-size: 14px;&quot;&gt;breadcrumbs.&lt;/b&gt;home.detail" placeholders="1" name="Variable" id="K0PCjT4belstwywt3aMA-58">
          <mxCell style="text;html=1;strokeColor=none;fillColor=none;align=left;verticalAlign=middle;whiteSpace=wrap;overflow=hidden;fontSize=14;" parent="K0PCjT4belstwywt3aMA-46" vertex="1">
            <mxGeometry x="26" y="70" width="167.5" height="20" as="geometry" />
          </mxCell>
        </UserObject>
        <UserObject label="&lt;b style=&quot;font-size: 14px;&quot;&gt;title.&lt;/b&gt;home.detail" placeholders="1" name="Variable" id="K0PCjT4belstwywt3aMA-59">
          <mxCell style="text;html=1;strokeColor=none;fillColor=none;align=left;verticalAlign=middle;whiteSpace=wrap;overflow=hidden;fontSize=14;" parent="K0PCjT4belstwywt3aMA-46" vertex="1">
            <mxGeometry x="26" y="50" width="167.5" height="20" as="geometry" />
          </mxCell>
        </UserObject>
        <mxCell id="K0PCjT4belstwywt3aMA-83" value="&lt;div&gt;&lt;span style=&quot;font-size: 16px; text-wrap: nowrap;&quot;&gt;EntityTable&amp;lt;&lt;font color=&quot;#ff0000&quot;&gt;RE&lt;/font&gt;&amp;gt;&lt;/span&gt;&lt;/div&gt;" style="swimlane;whiteSpace=wrap;html=1;startSize=30;fillColor=#d5e8d4;strokeColor=#82b366;" parent="1" vertex="1">
          <mxGeometry x="90" y="1220" width="350" height="240" as="geometry" />
        </mxCell>
        <mxCell id="K0PCjT4belstwywt3aMA-8" value="TableLayout&lt;RE&gt;" style="shape=table;startSize=30;container=1;collapsible=0;childLayout=tableLayout;strokeColor=#6c8ebf;fontSize=16;fillColor=#dae8fc;fontStyle=1;fontColor=#7EA6E0;" parent="K0PCjT4belstwywt3aMA-83" vertex="1">
          <mxGeometry x="14.25" y="43.5" width="326" height="180" as="geometry" />
        </mxCell>
        <mxCell id="K0PCjT4belstwywt3aMA-9" value="" style="shape=tableRow;horizontal=0;startSize=0;swimlaneHead=0;swimlaneBody=0;strokeColor=inherit;top=0;left=0;bottom=0;right=0;collapsible=0;dropTarget=0;fillColor=none;points=[[0,0.5],[1,0.5]];portConstraint=eastwest;fontSize=16;" parent="K0PCjT4belstwywt3aMA-8" vertex="1">
          <mxGeometry y="30" width="326" height="30" as="geometry" />
        </mxCell>
        <mxCell id="K0PCjT4belstwywt3aMA-10" value="&lt;b&gt;ID&lt;/b&gt;" style="shape=partialRectangle;html=1;whiteSpace=wrap;connectable=0;strokeColor=#000000;overflow=hidden;fillColor=#A9C4EB;top=0;left=0;bottom=0;right=0;pointerEvents=1;fontSize=16;fontColor=#7EA6E0;" parent="K0PCjT4belstwywt3aMA-9" vertex="1">
          <mxGeometry width="44" height="30" as="geometry">
            <mxRectangle width="44" height="30" as="alternateBounds" />
          </mxGeometry>
        </mxCell>
        <mxCell id="K0PCjT4belstwywt3aMA-11" value="&lt;b&gt;Columns&lt;/b&gt;" style="shape=partialRectangle;html=1;whiteSpace=wrap;connectable=0;strokeColor=#000000;overflow=hidden;fillColor=#A9C4EB;top=0;left=0;bottom=0;right=0;pointerEvents=1;fontSize=16;fontColor=#7EA6E0;" parent="K0PCjT4belstwywt3aMA-9" vertex="1">
          <mxGeometry x="44" width="151" height="30" as="geometry">
            <mxRectangle width="151" height="30" as="alternateBounds" />
          </mxGeometry>
        </mxCell>
        <mxCell id="K0PCjT4belstwywt3aMA-12" value="&lt;b&gt;Actions&lt;/b&gt;" style="shape=partialRectangle;html=1;whiteSpace=wrap;connectable=0;strokeColor=#000000;overflow=hidden;fillColor=#A9C4EB;top=0;left=0;bottom=0;right=0;pointerEvents=1;fontSize=16;fontColor=#7EA6E0;" parent="K0PCjT4belstwywt3aMA-9" vertex="1">
          <mxGeometry x="195" width="131" height="30" as="geometry">
            <mxRectangle width="131" height="30" as="alternateBounds" />
          </mxGeometry>
        </mxCell>
        <mxCell id="K0PCjT4belstwywt3aMA-13" value="" style="shape=tableRow;horizontal=0;startSize=0;swimlaneHead=0;swimlaneBody=0;strokeColor=inherit;top=0;left=0;bottom=0;right=0;collapsible=0;dropTarget=0;fillColor=none;points=[[0,0.5],[1,0.5]];portConstraint=eastwest;fontSize=16;" parent="K0PCjT4belstwywt3aMA-8" vertex="1">
          <mxGeometry y="60" width="326" height="120" as="geometry" />
        </mxCell>
        <mxCell id="K0PCjT4belstwywt3aMA-14" value="&lt;b&gt;&lt;font color=&quot;#ff0000&quot;&gt;ID&lt;/font&gt;&lt;/b&gt;" style="shape=partialRectangle;html=1;whiteSpace=wrap;connectable=0;strokeColor=#000000;overflow=hidden;fillColor=#dae8fc;top=0;left=0;bottom=0;right=0;pointerEvents=1;fontSize=16;" parent="K0PCjT4belstwywt3aMA-13" vertex="1">
          <mxGeometry width="44" height="120" as="geometry">
            <mxRectangle width="44" height="120" as="alternateBounds" />
          </mxGeometry>
        </mxCell>
        <mxCell id="K0PCjT4belstwywt3aMA-15" value="&lt;b&gt;Columns&amp;lt;&lt;font&gt;RE&lt;/font&gt;&amp;gt;&lt;/b&gt;" style="shape=partialRectangle;html=1;whiteSpace=wrap;connectable=0;strokeColor=#000000;overflow=hidden;fillColor=#dae8fc;top=0;left=0;bottom=0;right=0;pointerEvents=1;fontSize=16;fontColor=#7EA6E0;" parent="K0PCjT4belstwywt3aMA-13" vertex="1">
          <mxGeometry x="44" width="151" height="120" as="geometry">
            <mxRectangle width="151" height="120" as="alternateBounds" />
          </mxGeometry>
        </mxCell>
        <mxCell id="K0PCjT4belstwywt3aMA-16" value="" style="shape=partialRectangle;html=1;whiteSpace=wrap;connectable=0;strokeColor=#000000;overflow=hidden;fillColor=#dae8fc;top=0;left=0;bottom=0;right=0;pointerEvents=1;fontSize=16;" parent="K0PCjT4belstwywt3aMA-13" vertex="1">
          <mxGeometry x="195" width="131" height="120" as="geometry">
            <mxRectangle width="131" height="120" as="alternateBounds" />
          </mxGeometry>
        </mxCell>
        <mxCell id="K0PCjT4belstwywt3aMA-25" value="&lt;b&gt;DELETE&amp;lt;&lt;font&gt;RE&lt;/font&gt;&amp;gt;&lt;/b&gt;" style="shape=ext;double=1;rounded=1;whiteSpace=wrap;html=1;labelBackgroundColor=none;fillColor=#dae8fc;strokeColor=#6c8ebf;fontColor=#7EA6E0;" parent="K0PCjT4belstwywt3aMA-83" vertex="1">
          <mxGeometry x="217" y="110" width="117.5" height="30" as="geometry" />
        </mxCell>
        <mxCell id="K0PCjT4belstwywt3aMA-24" value="&lt;b&gt;EDIT&amp;lt;&lt;font&gt;RE&lt;/font&gt;&amp;gt;&lt;/b&gt;" style="shape=ext;double=1;rounded=1;whiteSpace=wrap;html=1;fillColor=#dae8fc;strokeColor=#6c8ebf;fontColor=#7EA6E0;" parent="K0PCjT4belstwywt3aMA-83" vertex="1">
          <mxGeometry x="217" y="148.5" width="117.5" height="30" as="geometry" />
        </mxCell>
        <mxCell id="K0PCjT4belstwywt3aMA-45" value="&lt;b&gt;ACTION&amp;lt;&lt;font&gt;RE&lt;/font&gt;&amp;gt;&lt;/b&gt;" style="shape=ext;double=1;rounded=1;whiteSpace=wrap;html=1;fillColor=#dae8fc;strokeColor=#6c8ebf;fontColor=#7EA6E0;" parent="K0PCjT4belstwywt3aMA-83" vertex="1">
          <mxGeometry x="217" y="186.5" width="117.5" height="30" as="geometry" />
        </mxCell>
        <mxCell id="K0PCjT4belstwywt3aMA-91" value="" style="group" parent="1" vertex="1" connectable="0">
          <mxGeometry x="596" y="1430" width="234" height="140" as="geometry" />
        </mxCell>
        <mxCell id="K0PCjT4belstwywt3aMA-77" style="edgeStyle=orthogonalEdgeStyle;rounded=0;orthogonalLoop=1;jettySize=auto;html=1;exitX=0.5;exitY=1;exitDx=0;exitDy=0;" parent="K0PCjT4belstwywt3aMA-91" edge="1">
          <mxGeometry relative="1" as="geometry">
            <mxPoint x="99" y="140" as="sourcePoint" />
            <mxPoint x="99" y="140" as="targetPoint" />
          </mxGeometry>
        </mxCell>
        <mxCell id="K0PCjT4belstwywt3aMA-82" value="" style="rounded=0;whiteSpace=wrap;html=1;fillColor=#dae8fc;strokeColor=#6c8ebf;" parent="K0PCjT4belstwywt3aMA-91" vertex="1">
          <mxGeometry width="234" height="140" as="geometry" />
        </mxCell>
        <mxCell id="K0PCjT4belstwywt3aMA-78" value="&lt;b style=&quot;font-size: 16px;&quot;&gt;&lt;font color=&quot;#7ea6e0&quot;&gt;TableCard&amp;lt;&lt;font style=&quot;font-size: 16px;&quot;&gt;RE&lt;/font&gt;&amp;gt;&lt;/font&gt;&lt;/b&gt;" style="text;html=1;align=center;verticalAlign=middle;resizable=0;points=[];autosize=1;strokeColor=none;fillColor=none;" parent="K0PCjT4belstwywt3aMA-91" vertex="1">
          <mxGeometry x="13.75" y="10" width="140" height="30" as="geometry" />
        </mxCell>
        <mxCell id="K0PCjT4belstwywt3aMA-60" value="&lt;b&gt;EDIT&lt;/b&gt;" style="shape=ext;double=1;rounded=1;whiteSpace=wrap;html=1;fillColor=#dae8fc;strokeColor=#6c8ebf;fontColor=#7EA6E0;" parent="K0PCjT4belstwywt3aMA-91" vertex="1">
          <mxGeometry x="153.75" y="10" width="66" height="30" as="geometry" />
        </mxCell>
        <mxCell id="K0PCjT4belstwywt3aMA-149" style="edgeStyle=orthogonalEdgeStyle;rounded=0;orthogonalLoop=1;jettySize=auto;html=1;exitX=0.75;exitY=1;exitDx=0;exitDy=0;" parent="K0PCjT4belstwywt3aMA-91" source="K0PCjT4belstwywt3aMA-67" edge="1">
          <mxGeometry relative="1" as="geometry">
            <mxPoint x="165.42857142857133" y="170" as="targetPoint" />
          </mxGeometry>
        </mxCell>
        <mxCell id="K0PCjT4belstwywt3aMA-67" value="Columns&lt;RE&gt;" style="shape=table;startSize=30;container=1;collapsible=0;childLayout=tableLayout;fixedRows=1;rowLines=0;fontStyle=1;strokeColor=default;fontSize=12;fontColor=#7EA6E0;fillColor=#99CCFF;" parent="K0PCjT4belstwywt3aMA-91" vertex="1">
          <mxGeometry x="20" y="60" width="194" height="62" as="geometry" />
        </mxCell>
        <mxCell id="K0PCjT4belstwywt3aMA-68" value="" style="shape=tableRow;horizontal=0;startSize=0;swimlaneHead=0;swimlaneBody=0;top=0;left=0;bottom=0;right=0;collapsible=0;dropTarget=0;fillColor=none;points=[[0,0.5],[1,0.5]];portConstraint=eastwest;strokeColor=inherit;fontSize=16;" parent="K0PCjT4belstwywt3aMA-67" vertex="1">
          <mxGeometry y="30" width="194" height="30" as="geometry" />
        </mxCell>
        <mxCell id="K0PCjT4belstwywt3aMA-69" value="&lt;font style=&quot;font-size: 12px;&quot;&gt;label&lt;/font&gt;" style="shape=partialRectangle;html=1;whiteSpace=wrap;connectable=0;fillColor=none;top=0;left=0;bottom=0;right=0;overflow=hidden;pointerEvents=1;strokeColor=inherit;fontSize=16;fontColor=#0066CC;" parent="K0PCjT4belstwywt3aMA-68" vertex="1">
          <mxGeometry width="104" height="30" as="geometry">
            <mxRectangle width="104" height="30" as="alternateBounds" />
          </mxGeometry>
        </mxCell>
        <mxCell id="K0PCjT4belstwywt3aMA-70" value="&lt;font style=&quot;font-size: 12px;&quot;&gt;value&lt;/font&gt;" style="shape=partialRectangle;html=1;whiteSpace=wrap;connectable=0;fillColor=none;top=0;left=0;bottom=0;right=0;align=center;spacingLeft=6;overflow=hidden;strokeColor=inherit;fontSize=16;fontColor=#0066CC;" parent="K0PCjT4belstwywt3aMA-68" vertex="1">
          <mxGeometry x="104" width="90" height="30" as="geometry">
            <mxRectangle width="90" height="30" as="alternateBounds" />
          </mxGeometry>
        </mxCell>
        <mxCell id="K0PCjT4belstwywt3aMA-93" value="&lt;div&gt;&lt;span style=&quot;font-size: 16px; text-wrap: nowrap;&quot;&gt;EntityForm&amp;lt;&lt;font color=&quot;#ff0000&quot;&gt;RE, PE&lt;/font&gt;&amp;gt;&lt;/span&gt;&lt;/div&gt;" style="swimlane;whiteSpace=wrap;html=1;startSize=30;fillColor=#d5e8d4;strokeColor=#82b366;" parent="1" vertex="1">
          <mxGeometry x="699" y="1220" width="270" height="190" as="geometry" />
        </mxCell>
        <mxCell id="K0PCjT4belstwywt3aMA-94" value="FormikForm&lt;RE, PE&gt;" style="shape=table;startSize=30;container=1;collapsible=0;childLayout=tableLayout;strokeColor=#6c8ebf;fontSize=16;fillColor=#dae8fc;fontStyle=1;fontColor=#7EA6E0;" parent="K0PCjT4belstwywt3aMA-93" vertex="1">
          <mxGeometry x="14" y="50" width="243.75" height="120" as="geometry" />
        </mxCell>
        <mxCell id="K0PCjT4belstwywt3aMA-95" value="" style="shape=tableRow;horizontal=0;startSize=0;swimlaneHead=0;swimlaneBody=0;strokeColor=inherit;top=0;left=0;bottom=0;right=0;collapsible=0;dropTarget=0;fillColor=none;points=[[0,0.5],[1,0.5]];portConstraint=eastwest;fontSize=16;" parent="K0PCjT4belstwywt3aMA-94" vertex="1">
          <mxGeometry y="30" width="243.75" height="40" as="geometry" />
        </mxCell>
        <mxCell id="K0PCjT4belstwywt3aMA-96" value="&lt;font color=&quot;#ff0000&quot;&gt;&lt;b&gt;Fields&lt;/b&gt;&lt;/font&gt;&lt;font color=&quot;#7ea6e0&quot;&gt;&amp;lt;&lt;b&gt;Columns&lt;/b&gt;&amp;gt;&lt;/font&gt;" style="shape=partialRectangle;html=1;whiteSpace=wrap;connectable=0;strokeColor=#000000;overflow=hidden;fillColor=#dae8fc;top=0;left=0;bottom=0;right=0;pointerEvents=1;fontSize=16;" parent="K0PCjT4belstwywt3aMA-95" vertex="1">
          <mxGeometry width="244" height="40" as="geometry">
            <mxRectangle width="244" height="40" as="alternateBounds" />
          </mxGeometry>
        </mxCell>
        <mxCell id="K0PCjT4belstwywt3aMA-106" style="shape=tableRow;horizontal=0;startSize=0;swimlaneHead=0;swimlaneBody=0;strokeColor=inherit;top=0;left=0;bottom=0;right=0;collapsible=0;dropTarget=0;fillColor=none;points=[[0,0.5],[1,0.5]];portConstraint=eastwest;fontSize=16;" parent="K0PCjT4belstwywt3aMA-94" vertex="1">
          <mxGeometry y="70" width="243.75" height="50" as="geometry" />
        </mxCell>
        <mxCell id="K0PCjT4belstwywt3aMA-107" style="shape=partialRectangle;html=1;whiteSpace=wrap;connectable=0;strokeColor=#000000;overflow=hidden;fillColor=#dae8fc;top=0;left=0;bottom=0;right=0;pointerEvents=1;fontSize=16;" parent="K0PCjT4belstwywt3aMA-106" vertex="1">
          <mxGeometry width="244" height="50" as="geometry">
            <mxRectangle width="244" height="50" as="alternateBounds" />
          </mxGeometry>
        </mxCell>
        <mxCell id="K0PCjT4belstwywt3aMA-105" value="&lt;b&gt;SUBMIT&lt;/b&gt;" style="shape=ext;double=1;rounded=1;whiteSpace=wrap;html=1;fillColor=#dae8fc;strokeColor=#6c8ebf;fontColor=#7EA6E0;" parent="K0PCjT4belstwywt3aMA-93" vertex="1">
          <mxGeometry x="130" y="130" width="117.5" height="30" as="geometry" />
        </mxCell>
        <mxCell id="K0PCjT4belstwywt3aMA-104" value="&lt;b&gt;CANCEL&lt;/b&gt;" style="shape=ext;double=1;rounded=1;whiteSpace=wrap;html=1;fillColor=#dae8fc;strokeColor=#6c8ebf;fontColor=#7EA6E0;" parent="K0PCjT4belstwywt3aMA-93" vertex="1">
          <mxGeometry x="30" y="130" width="90" height="30" as="geometry" />
        </mxCell>
        <mxCell id="K0PCjT4belstwywt3aMA-114" value="" style="endArrow=classic;startArrow=classic;html=1;rounded=0;" parent="1" edge="1">
          <mxGeometry width="50" height="50" relative="1" as="geometry">
            <mxPoint x="844" y="1218" as="sourcePoint" />
            <mxPoint x="844" y="1160" as="targetPoint" />
          </mxGeometry>
        </mxCell>
        <mxCell id="K0PCjT4belstwywt3aMA-115" value="&lt;b&gt;EDIT ( ADD / UPDATE )&lt;/b&gt;" style="edgeLabel;html=1;align=center;verticalAlign=middle;resizable=0;points=[];" parent="K0PCjT4belstwywt3aMA-114" vertex="1" connectable="0">
          <mxGeometry x="-0.1691" y="1" relative="1" as="geometry">
            <mxPoint y="-5" as="offset" />
          </mxGeometry>
        </mxCell>
        <mxCell id="K0PCjT4belstwywt3aMA-118" value="" style="endArrow=classic;startArrow=classic;html=1;rounded=0;" parent="1" edge="1">
          <mxGeometry width="50" height="50" relative="1" as="geometry">
            <mxPoint x="644" y="1430" as="sourcePoint" />
            <mxPoint x="644" y="1160" as="targetPoint" />
          </mxGeometry>
        </mxCell>
        <mxCell id="K0PCjT4belstwywt3aMA-119" value="&lt;b&gt;VIEW&lt;/b&gt;" style="edgeLabel;html=1;align=center;verticalAlign=middle;resizable=0;points=[];" parent="K0PCjT4belstwywt3aMA-118" vertex="1" connectable="0">
          <mxGeometry x="0.1427" y="2" relative="1" as="geometry">
            <mxPoint as="offset" />
          </mxGeometry>
        </mxCell>
        <mxCell id="K0PCjT4belstwywt3aMA-121" value="" style="edgeStyle=elbowEdgeStyle;elbow=horizontal;endArrow=classic;html=1;curved=0;rounded=0;endSize=8;startSize=8;" parent="1" source="K0PCjT4belstwywt3aMA-24" edge="1">
          <mxGeometry width="50" height="50" relative="1" as="geometry">
            <mxPoint x="539" y="1190" as="sourcePoint" />
            <mxPoint x="589" y="1140" as="targetPoint" />
            <Array as="points">
              <mxPoint x="550" y="1260" />
            </Array>
          </mxGeometry>
        </mxCell>
        <mxCell id="K0PCjT4belstwywt3aMA-122" value="/home/:id" style="edgeLabel;html=1;align=center;verticalAlign=middle;resizable=0;points=[];fontStyle=1" parent="K0PCjT4belstwywt3aMA-121" vertex="1" connectable="0">
          <mxGeometry x="-0.1396" relative="1" as="geometry">
            <mxPoint x="-29" y="40" as="offset" />
          </mxGeometry>
        </mxCell>
        <mxCell id="K0PCjT4belstwywt3aMA-130" value="" style="group" parent="1" vertex="1" connectable="0">
          <mxGeometry x="92" y="438" width="178" height="84" as="geometry" />
        </mxCell>
        <UserObject label="&lt;b&gt;Value Types&lt;/b&gt;" placeholders="1" name="Variable" id="YahrEmIbVGKIaJTnLxun-84">
          <mxCell style="text;html=1;strokeColor=none;fillColor=none;align=center;verticalAlign=middle;whiteSpace=wrap;overflow=hidden;fontColor=#CCCCCC;" parent="K0PCjT4belstwywt3aMA-130" vertex="1">
            <mxGeometry x="90.97777777777779" y="25" width="79.11111111111111" height="20" as="geometry" />
          </mxCell>
        </UserObject>
        <mxCell id="K0PCjT4belstwywt3aMA-129" value="" style="shape=note;whiteSpace=wrap;html=1;backgroundOutline=1;darkOpacity=0.05;" parent="K0PCjT4belstwywt3aMA-130" vertex="1">
          <mxGeometry width="178" height="84" as="geometry" />
        </mxCell>
        <mxCell id="K0PCjT4belstwywt3aMA-124" value="" style="shape=curlyBracket;whiteSpace=wrap;html=1;rounded=1;labelPosition=left;verticalLabelPosition=middle;align=right;verticalAlign=middle;" parent="K0PCjT4belstwywt3aMA-130" vertex="1">
          <mxGeometry x="19.77777777777778" y="12" width="19.77777777777778" height="60" as="geometry" />
        </mxCell>
        <mxCell id="K0PCjT4belstwywt3aMA-125" value="" style="shape=curlyBracket;whiteSpace=wrap;html=1;rounded=1;flipH=1;labelPosition=right;verticalLabelPosition=middle;align=left;verticalAlign=middle;" parent="K0PCjT4belstwywt3aMA-130" vertex="1">
          <mxGeometry x="124.60000000000001" y="14" width="19.77777777777778" height="58" as="geometry" />
        </mxCell>
        <mxCell id="K0PCjT4belstwywt3aMA-126" value="&lt;span style=&quot;color: rgb(0, 0, 0); font-family: Helvetica; font-size: 12px; font-style: normal; font-variant-ligatures: normal; font-variant-caps: normal; font-weight: 700; letter-spacing: normal; orphans: 2; text-align: center; text-indent: 0px; text-transform: none; widows: 2; word-spacing: 0px; -webkit-text-stroke-width: 0px; white-space: nowrap; background-color: rgb(251, 251, 251); text-decoration-thickness: initial; text-decoration-style: initial; text-decoration-color: initial; display: inline !important; float: none;&quot;&gt;ENTITY (PE)&lt;/span&gt;" style="text;whiteSpace=wrap;html=1;" parent="K0PCjT4belstwywt3aMA-130" vertex="1">
          <mxGeometry x="45.488888888888894" y="19" width="79.11111111111111" height="30" as="geometry" />
        </mxCell>
        <mxCell id="K0PCjT4belstwywt3aMA-127" value="&lt;span style=&quot;color: rgb(255, 0, 0); font-family: Helvetica; font-size: 12px; font-style: normal; font-variant-ligatures: normal; font-variant-caps: normal; font-weight: 700; letter-spacing: normal; orphans: 2; text-align: left; text-indent: 0px; text-transform: none; widows: 2; word-spacing: 0px; -webkit-text-stroke-width: 0px; white-space: nowrap; background-color: rgb(251, 251, 251); text-decoration-thickness: initial; text-decoration-style: initial; text-decoration-color: initial; display: inline !important; float: none;&quot;&gt;COLUMNS&lt;/span&gt;" style="text;whiteSpace=wrap;html=1;" parent="K0PCjT4belstwywt3aMA-130" vertex="1">
          <mxGeometry x="45.488888888888894" y="40" width="63.28888888888889" height="20" as="geometry" />
        </mxCell>
        <mxCell id="K0PCjT4belstwywt3aMA-137" value="&lt;b&gt;&lt;font color=&quot;#7ea6e0&quot; style=&quot;font-size: 14px;&quot;&gt;ADAPTER : AXIOS&amp;lt;PE, RE&amp;gt;&lt;/font&gt;&lt;/b&gt;" style="rounded=0;whiteSpace=wrap;html=1;fillColor=#CCFFFF;strokeColor=#6c8ebf;" parent="1" vertex="1">
          <mxGeometry x="380" y="710" width="420" height="40" as="geometry" />
        </mxCell>
        <mxCell id="K0PCjT4belstwywt3aMA-139" value="" style="rounded=0;whiteSpace=wrap;html=1;align=left;fillColor=#dae8fc;strokeColor=#6c8ebf;" parent="1" vertex="1">
          <mxGeometry x="380" y="750" width="420" height="110" as="geometry" />
        </mxCell>
        <mxCell id="K0PCjT4belstwywt3aMA-141" value="&lt;font color=&quot;#7ea6e0&quot;&gt;EVENTS&lt;/font&gt;&lt;div&gt;&lt;font color=&quot;#7ea6e0&quot;&gt;NAVIGATION&lt;/font&gt;&lt;/div&gt;&lt;div&gt;&lt;font color=&quot;#7ea6e0&quot;&gt;NOTIFICATIONS&lt;/font&gt;&lt;/div&gt;&lt;div&gt;&lt;font color=&quot;#7ea6e0&quot;&gt;ERROR HANDLING&lt;/font&gt;&lt;/div&gt;&lt;div&gt;&lt;font color=&quot;#7ea6e0&quot;&gt;CALLBACK&lt;/font&gt;&lt;/div&gt;" style="rounded=1;whiteSpace=wrap;html=1;fillColor=#99FFFF;strokeColor=#7EA6E0;" parent="1" vertex="1">
          <mxGeometry x="650" y="760" width="180" height="90" as="geometry" />
        </mxCell>
        <mxCell id="K0PCjT4belstwywt3aMA-142" value="&lt;font color=&quot;#cce5ff&quot; style=&quot;font-size: 16px;&quot;&gt;&lt;b style=&quot;&quot;&gt;API : GET&amp;nbsp; | PUT | POST | DELETE&amp;nbsp;&lt;/b&gt;&lt;/font&gt;" style="rounded=0;whiteSpace=wrap;html=1;fillColor=#99CCFF;strokeColor=#10739e;" parent="1" vertex="1">
          <mxGeometry x="380" y="860" width="420" height="30" as="geometry" />
        </mxCell>
        <mxCell id="K0PCjT4belstwywt3aMA-144" style="edgeStyle=orthogonalEdgeStyle;rounded=0;orthogonalLoop=1;jettySize=auto;html=1;entryX=0;entryY=0.5;entryDx=0;entryDy=0;" parent="1" source="K0PCjT4belstwywt3aMA-143" target="K0PCjT4belstwywt3aMA-141" edge="1">
          <mxGeometry relative="1" as="geometry" />
        </mxCell>
        <mxCell id="K0PCjT4belstwywt3aMA-143" value="&lt;span style=&quot;font-family: Helvetica; font-style: normal; font-variant-ligatures: normal; font-variant-caps: normal; letter-spacing: normal; orphans: 2; text-indent: 0px; text-transform: none; widows: 2; word-spacing: 0px; -webkit-text-stroke-width: 0px; white-space: normal; text-decoration-thickness: initial; text-decoration-style: initial; text-decoration-color: initial; float: none; font-size: 15px; display: inline !important;&quot;&gt;&lt;font style=&quot;font-size: 15px;&quot;&gt;&lt;b style=&quot;font-size: 15px;&quot;&gt;HANDLERS&amp;lt;PE, RE&amp;gt;&lt;/b&gt;&lt;/font&gt;&lt;/span&gt;&lt;div style=&quot;forced-color-adjust: none; font-family: Helvetica; font-style: normal; font-variant-ligatures: normal; font-variant-caps: normal; letter-spacing: normal; orphans: 2; text-indent: 0px; text-transform: none; widows: 2; word-spacing: 0px; -webkit-text-stroke-width: 0px; white-space: normal; text-decoration-thickness: initial; text-decoration-style: initial; text-decoration-color: initial; font-size: 15px;&quot;&gt;&lt;font style=&quot;font-size: 15px;&quot;&gt;&lt;b style=&quot;font-size: 15px;&quot;&gt;&lt;br style=&quot;forced-color-adjust: none; font-size: 15px;&quot;&gt;&lt;/b&gt;&lt;/font&gt;&lt;/div&gt;&lt;div style=&quot;forced-color-adjust: none; font-family: Helvetica; font-style: normal; font-variant-ligatures: normal; font-variant-caps: normal; letter-spacing: normal; orphans: 2; text-indent: 0px; text-transform: none; widows: 2; word-spacing: 0px; -webkit-text-stroke-width: 0px; white-space: normal; text-decoration-thickness: initial; text-decoration-style: initial; text-decoration-color: initial; font-size: 15px;&quot;&gt;&lt;font style=&quot;font-size: 15px;&quot;&gt;&lt;b style=&quot;font-size: 15px;&quot;&gt;Success | Error&lt;/b&gt;&lt;/font&gt;&lt;/div&gt;" style="text;whiteSpace=wrap;html=1;align=center;fillColor=none;strokeColor=none;fontSize=15;fontColor=#3399FF;" parent="1" vertex="1">
          <mxGeometry x="419" y="770" width="191" height="70" as="geometry" />
        </mxCell>
        <mxCell id="K0PCjT4belstwywt3aMA-146" value="Custom Action&amp;lt;RE&amp;gt;" style="text;html=1;align=center;verticalAlign=middle;whiteSpace=wrap;rounded=0;fontSize=15;fontStyle=1;textOpacity=30;" parent="1" vertex="1">
          <mxGeometry x="295" y="1600" width="165" height="30" as="geometry" />
        </mxCell>
        <mxCell id="K0PCjT4belstwywt3aMA-148" value="&lt;span style=&quot;font-size: 15px; font-weight: 700;&quot;&gt;Custom Value &amp;lt;RE&amp;gt;&lt;/span&gt;" style="text;html=1;align=center;verticalAlign=middle;whiteSpace=wrap;rounded=0;textOpacity=30;" parent="1" vertex="1">
          <mxGeometry x="673" y="1600" width="171" height="30" as="geometry" />
        </mxCell>
        <mxCell id="K0PCjT4belstwywt3aMA-157" value="" style="endArrow=classic;startArrow=classic;html=1;rounded=0;exitX=0.877;exitY=0;exitDx=0;exitDy=0;exitPerimeter=0;entryX=0.66;entryY=1.05;entryDx=0;entryDy=0;entryPerimeter=0;" parent="1" target="RBLev0tIOGZzSbOk9MDJ-1" edge="1">
          <mxGeometry width="50" height="50" relative="1" as="geometry">
            <mxPoint x="659.02" y="1050" as="sourcePoint" />
            <mxPoint x="659.02" y="920" as="targetPoint" />
          </mxGeometry>
        </mxCell>
        <mxCell id="K0PCjT4belstwywt3aMA-158" value="&lt;b&gt;&lt;font color=&quot;#007fff&quot; style=&quot;font-size: 15px;&quot;&gt;SUBMIT&amp;lt;RE, PE&amp;gt;&lt;/font&gt;&lt;/b&gt;" style="edgeLabel;html=1;align=center;verticalAlign=middle;resizable=0;points=[];" parent="K0PCjT4belstwywt3aMA-157" vertex="1" connectable="0">
          <mxGeometry x="0.0096" y="-2" relative="1" as="geometry">
            <mxPoint x="-1" y="3" as="offset" />
          </mxGeometry>
        </mxCell>
        <mxCell id="RBLev0tIOGZzSbOk9MDJ-1" value="&lt;b style=&quot;font-size: 16px; color: rgb(204, 229, 255); background-color: initial;&quot;&gt;FETCHER | PAGER | SUBMIT ...&lt;/b&gt;" style="rounded=0;whiteSpace=wrap;html=1;fillColor=#66B2FF;strokeColor=#10739e;" parent="1" vertex="1">
          <mxGeometry x="380" y="890" width="420" height="30" as="geometry" />
        </mxCell>
        <mxCell id="RBLev0tIOGZzSbOk9MDJ-3" value="&lt;b style=&quot;color: rgb(179, 179, 179); forced-color-adjust: none; font-family: Helvetica; font-size: 18px; font-style: normal; font-variant-ligatures: normal; font-variant-caps: normal; letter-spacing: normal; orphans: 2; text-align: left; text-indent: 0px; text-transform: none; widows: 2; word-spacing: 0px; -webkit-text-stroke-width: 0px; white-space: normal; background-color: rgb(251, 251, 251); text-decoration-thickness: initial; text-decoration-style: initial; text-decoration-color: initial;&quot;&gt;DECLARATION&lt;/b&gt;&lt;span style=&quot;color: rgb(179, 179, 179); font-family: Helvetica; font-size: 18px; font-style: normal; font-variant-ligatures: normal; font-variant-caps: normal; font-weight: 400; letter-spacing: normal; orphans: 2; text-align: left; text-indent: 0px; text-transform: none; widows: 2; word-spacing: 0px; -webkit-text-stroke-width: 0px; white-space: normal; background-color: rgb(251, 251, 251); text-decoration-thickness: initial; text-decoration-style: initial; text-decoration-color: initial; float: none; display: inline !important;&quot;&gt;&amp;lt;&lt;/span&gt;&lt;b style=&quot;forced-color-adjust: none; font-family: Helvetica; font-size: 18px; font-style: normal; font-variant-ligatures: normal; font-variant-caps: normal; letter-spacing: normal; orphans: 2; text-align: left; text-indent: 0px; text-transform: none; widows: 2; word-spacing: 0px; -webkit-text-stroke-width: 0px; white-space: normal; background-color: rgb(251, 251, 251); text-decoration-thickness: initial; text-decoration-style: initial; text-decoration-color: initial;&quot;&gt;&lt;font color=&quot;#ea6b66&quot; style=&quot;forced-color-adjust: none; font-size: 18px;&quot;&gt;entity&lt;/font&gt;&lt;/b&gt;&lt;span style=&quot;color: rgb(179, 179, 179); font-family: Helvetica; font-size: 18px; font-style: normal; font-variant-ligatures: normal; font-variant-caps: normal; font-weight: 400; letter-spacing: normal; orphans: 2; text-align: left; text-indent: 0px; text-transform: none; widows: 2; word-spacing: 0px; -webkit-text-stroke-width: 0px; white-space: normal; background-color: rgb(251, 251, 251); text-decoration-thickness: initial; text-decoration-style: initial; text-decoration-color: initial; float: none; display: inline !important;&quot;&gt;&amp;gt;&lt;/span&gt;" style="text;whiteSpace=wrap;html=1;fontSize=18;" parent="1" vertex="1">
          <mxGeometry x="101" y="660" width="239" height="40" as="geometry" />
        </mxCell>
        <mxCell id="RBLev0tIOGZzSbOk9MDJ-5" value="&lt;span style=&quot;forced-color-adjust: none; font-family: Helvetica; font-size: 11px; font-variant-ligatures: normal; font-variant-caps: normal; letter-spacing: normal; orphans: 2; text-align: center; text-indent: 0px; text-transform: none; widows: 2; word-spacing: 0px; -webkit-text-stroke-width: 0px; white-space: nowrap; text-decoration-thickness: initial; text-decoration-style: initial; text-decoration-color: initial;&quot;&gt;&lt;font color=&quot;#b3b3b3&quot; style=&quot;forced-color-adjust: none; font-size: 16px;&quot;&gt;&lt;b style=&quot;&quot;&gt;&amp;nbsp; &amp;nbsp;MAP(ID)&amp;nbsp;&amp;nbsp;&lt;/b&gt;&lt;/font&gt;&lt;/span&gt;" style="text;whiteSpace=wrap;html=1;fontStyle=2" parent="1" vertex="1">
          <mxGeometry x="320" y="452" width="90" height="33" as="geometry" />
        </mxCell>
        <mxCell id="RBLev0tIOGZzSbOk9MDJ-6" value="" style="endArrow=classic;startArrow=classic;html=1;rounded=0;entryX=0;entryY=0.5;entryDx=0;entryDy=0;" parent="1" edge="1">
          <mxGeometry width="50" height="50" relative="1" as="geometry">
            <mxPoint x="270" y="490" as="sourcePoint" />
            <mxPoint x="460" y="490" as="targetPoint" />
          </mxGeometry>
        </mxCell>
        <mxCell id="RBLev0tIOGZzSbOk9MDJ-7" value="" style="edgeStyle=segmentEdgeStyle;endArrow=classic;html=1;curved=0;rounded=0;endSize=8;startSize=8;exitX=1;exitY=0.75;exitDx=0;exitDy=0;entryX=0.295;entryY=1.033;entryDx=0;entryDy=0;entryPerimeter=0;" parent="1" source="K0PCjT4belstwywt3aMA-25" target="RBLev0tIOGZzSbOk9MDJ-1" edge="1">
          <mxGeometry width="50" height="50" relative="1" as="geometry">
            <mxPoint x="430" y="1350" as="sourcePoint" />
            <mxPoint x="480" y="1300" as="targetPoint" />
            <Array as="points">
              <mxPoint x="425" y="1345" />
              <mxPoint x="504" y="1345" />
            </Array>
          </mxGeometry>
        </mxCell>
        <mxCell id="RBLev0tIOGZzSbOk9MDJ-11" value="&lt;b style=&quot;color: rgb(51, 153, 255); font-size: 15px;&quot;&gt;DELETE&lt;/b&gt;" style="edgeLabel;html=1;align=center;verticalAlign=middle;resizable=0;points=[];" parent="RBLev0tIOGZzSbOk9MDJ-7" vertex="1" connectable="0">
          <mxGeometry x="0.6555" relative="1" as="geometry">
            <mxPoint y="-20" as="offset" />
          </mxGeometry>
        </mxCell>
        <mxCell id="RBLev0tIOGZzSbOk9MDJ-13" value="&lt;span style=&quot;font-weight: 700;&quot;&gt;/api/:id&lt;/span&gt;" style="edgeLabel;html=1;align=center;verticalAlign=middle;resizable=0;points=[];" parent="RBLev0tIOGZzSbOk9MDJ-7" vertex="1" connectable="0">
          <mxGeometry x="-0.7299" y="1" relative="1" as="geometry">
            <mxPoint x="-6" y="-11" as="offset" />
          </mxGeometry>
        </mxCell>
        <mxCell id="RBLev0tIOGZzSbOk9MDJ-12" value="" style="endArrow=classic;html=1;rounded=0;entryX=0.343;entryY=0;entryDx=0;entryDy=0;entryPerimeter=0;" parent="1" edge="1">
          <mxGeometry width="50" height="50" relative="1" as="geometry">
            <mxPoint x="400" y="1170" as="sourcePoint" />
            <mxPoint x="400.04999999999995" y="1220" as="targetPoint" />
          </mxGeometry>
        </mxCell>
        <mxCell id="RBLev0tIOGZzSbOk9MDJ-15" style="edgeStyle=orthogonalEdgeStyle;rounded=0;orthogonalLoop=1;jettySize=auto;html=1;exitX=0.5;exitY=1;exitDx=0;exitDy=0;entryX=0.43;entryY=-0.117;entryDx=0;entryDy=0;entryPerimeter=0;" parent="1" source="K0PCjT4belstwywt3aMA-45" target="K0PCjT4belstwywt3aMA-146" edge="1">
          <mxGeometry relative="1" as="geometry" />
        </mxCell>
        <mxCell id="m4b5hyx0QxusBO34S00l-1" value="" style="endArrow=classic;html=1;rounded=0;entryX=0.052;entryY=1.083;entryDx=0;entryDy=0;entryPerimeter=0;" edge="1" parent="1" target="RBLev0tIOGZzSbOk9MDJ-1">
          <mxGeometry width="50" height="50" relative="1" as="geometry">
            <mxPoint x="402" y="1040" as="sourcePoint" />
            <mxPoint x="450" y="1000" as="targetPoint" />
          </mxGeometry>
        </mxCell>
        <mxCell id="m4b5hyx0QxusBO34S00l-2" value="&lt;b&gt;&lt;font style=&quot;font-size: 15px;&quot; color=&quot;#3399ff&quot;&gt;PAGER&amp;lt;RE&amp;gt;&lt;/font&gt;&lt;/b&gt;" style="edgeLabel;html=1;align=center;verticalAlign=middle;resizable=0;points=[];" vertex="1" connectable="0" parent="m4b5hyx0QxusBO34S00l-1">
          <mxGeometry x="-0.0667" relative="1" as="geometry">
            <mxPoint y="3" as="offset" />
          </mxGeometry>
        </mxCell>
      </root>
    </mxGraphModel>
  </diagram>
</mxfile>
